<mxfile host="app.diagrams.net" agent="Mozilla/5.0 (Windows NT 10.0; Win64; x64; rv:130.0) Gecko/20100101 Firefox/130.0" version="24.7.16">
  <diagram name="PÃ¡gina-1" id="IcZZVgsk4rq1F31GZpby">
    <mxGraphModel dx="934" dy="432" grid="1" gridSize="10" guides="1" tooltips="1" connect="1" arrows="1" fold="1" page="1" pageScale="1" pageWidth="827" pageHeight="1169" math="0" shadow="0">
      <root>
        <mxCell id="0" />
        <mxCell id="1" parent="0" />
        <mxCell id="w3CWmhNfxF5kTrnPfjpj-1" value="" style="shape=trapezoid;perimeter=trapezoidPerimeter;whiteSpace=wrap;html=1;fixedSize=1;direction=west;" vertex="1" parent="1">
          <mxGeometry x="99" y="125" width="70" height="30" as="geometry" />
        </mxCell>
        <mxCell id="w3CWmhNfxF5kTrnPfjpj-2" value="" style="rounded=0;whiteSpace=wrap;html=1;" vertex="1" parent="1">
          <mxGeometry x="399" y="525" width="60" height="20" as="geometry" />
        </mxCell>
        <mxCell id="w3CWmhNfxF5kTrnPfjpj-3" value="" style="triangle;whiteSpace=wrap;html=1;" vertex="1" parent="1">
          <mxGeometry x="399" y="530" width="10" height="10" as="geometry" />
        </mxCell>
        <mxCell id="w3CWmhNfxF5kTrnPfjpj-4" value="" style="rounded=0;whiteSpace=wrap;html=1;" vertex="1" parent="1">
          <mxGeometry x="160.01" y="525" width="60" height="20" as="geometry" />
        </mxCell>
        <mxCell id="w3CWmhNfxF5kTrnPfjpj-5" value="" style="triangle;whiteSpace=wrap;html=1;" vertex="1" parent="1">
          <mxGeometry x="160.01" y="530" width="10" height="10" as="geometry" />
        </mxCell>
        <mxCell id="w3CWmhNfxF5kTrnPfjpj-6" value="" style="rounded=0;whiteSpace=wrap;html=1;" vertex="1" parent="1">
          <mxGeometry x="534" y="525" width="60" height="20" as="geometry" />
        </mxCell>
        <mxCell id="w3CWmhNfxF5kTrnPfjpj-7" value="" style="triangle;whiteSpace=wrap;html=1;" vertex="1" parent="1">
          <mxGeometry x="534" y="530" width="10" height="10" as="geometry" />
        </mxCell>
        <mxCell id="w3CWmhNfxF5kTrnPfjpj-8" value="" style="rounded=0;whiteSpace=wrap;html=1;" vertex="1" parent="1">
          <mxGeometry x="280" y="525" width="59" height="20" as="geometry" />
        </mxCell>
        <mxCell id="w3CWmhNfxF5kTrnPfjpj-9" value="" style="triangle;whiteSpace=wrap;html=1;" vertex="1" parent="1">
          <mxGeometry x="280" y="530" width="10" height="10" as="geometry" />
        </mxCell>
        <mxCell id="w3CWmhNfxF5kTrnPfjpj-10" value="" style="endArrow=none;html=1;rounded=0;entryX=0.908;entryY=0.674;entryDx=0;entryDy=0;entryPerimeter=0;" edge="1" parent="1" target="w3CWmhNfxF5kTrnPfjpj-1">
          <mxGeometry width="50" height="50" relative="1" as="geometry">
            <mxPoint x="89" y="135" as="sourcePoint" />
            <mxPoint x="104" y="135" as="targetPoint" />
          </mxGeometry>
        </mxCell>
        <mxCell id="w3CWmhNfxF5kTrnPfjpj-11" value="" style="shape=trapezoid;perimeter=trapezoidPerimeter;whiteSpace=wrap;html=1;fixedSize=1;direction=west;" vertex="1" parent="1">
          <mxGeometry x="189" y="125" width="70" height="30" as="geometry" />
        </mxCell>
        <mxCell id="w3CWmhNfxF5kTrnPfjpj-12" value="" style="endArrow=none;html=1;rounded=0;entryX=0.908;entryY=0.674;entryDx=0;entryDy=0;entryPerimeter=0;" edge="1" parent="1" target="w3CWmhNfxF5kTrnPfjpj-11">
          <mxGeometry width="50" height="50" relative="1" as="geometry">
            <mxPoint x="179" y="135" as="sourcePoint" />
            <mxPoint x="194" y="135" as="targetPoint" />
          </mxGeometry>
        </mxCell>
        <mxCell id="w3CWmhNfxF5kTrnPfjpj-13" value="" style="shape=trapezoid;perimeter=trapezoidPerimeter;whiteSpace=wrap;html=1;fixedSize=1;direction=west;" vertex="1" parent="1">
          <mxGeometry x="279" y="125" width="70" height="30" as="geometry" />
        </mxCell>
        <mxCell id="w3CWmhNfxF5kTrnPfjpj-14" value="" style="endArrow=none;html=1;rounded=0;entryX=0.908;entryY=0.674;entryDx=0;entryDy=0;entryPerimeter=0;" edge="1" parent="1" target="w3CWmhNfxF5kTrnPfjpj-13">
          <mxGeometry width="50" height="50" relative="1" as="geometry">
            <mxPoint x="269" y="135" as="sourcePoint" />
            <mxPoint x="284" y="135" as="targetPoint" />
          </mxGeometry>
        </mxCell>
        <mxCell id="w3CWmhNfxF5kTrnPfjpj-15" value="" style="shape=trapezoid;perimeter=trapezoidPerimeter;whiteSpace=wrap;html=1;fixedSize=1;direction=west;" vertex="1" parent="1">
          <mxGeometry x="369" y="125" width="70" height="30" as="geometry" />
        </mxCell>
        <mxCell id="w3CWmhNfxF5kTrnPfjpj-16" value="" style="endArrow=none;html=1;rounded=0;entryX=0.908;entryY=0.674;entryDx=0;entryDy=0;entryPerimeter=0;" edge="1" parent="1" target="w3CWmhNfxF5kTrnPfjpj-15">
          <mxGeometry width="50" height="50" relative="1" as="geometry">
            <mxPoint x="359" y="135" as="sourcePoint" />
            <mxPoint x="374" y="135" as="targetPoint" />
          </mxGeometry>
        </mxCell>
        <mxCell id="w3CWmhNfxF5kTrnPfjpj-17" value="" style="shape=trapezoid;perimeter=trapezoidPerimeter;whiteSpace=wrap;html=1;fixedSize=1;direction=west;" vertex="1" parent="1">
          <mxGeometry x="459" y="125" width="70" height="30" as="geometry" />
        </mxCell>
        <mxCell id="w3CWmhNfxF5kTrnPfjpj-18" value="" style="endArrow=none;html=1;rounded=0;entryX=0.908;entryY=0.674;entryDx=0;entryDy=0;entryPerimeter=0;" edge="1" parent="1" target="w3CWmhNfxF5kTrnPfjpj-17">
          <mxGeometry width="50" height="50" relative="1" as="geometry">
            <mxPoint x="449" y="135" as="sourcePoint" />
            <mxPoint x="464" y="135" as="targetPoint" />
          </mxGeometry>
        </mxCell>
        <mxCell id="w3CWmhNfxF5kTrnPfjpj-19" value="" style="shape=trapezoid;perimeter=trapezoidPerimeter;whiteSpace=wrap;html=1;fixedSize=1;direction=west;" vertex="1" parent="1">
          <mxGeometry x="549" y="125" width="70" height="30" as="geometry" />
        </mxCell>
        <mxCell id="w3CWmhNfxF5kTrnPfjpj-20" value="" style="endArrow=none;html=1;rounded=0;entryX=0.908;entryY=0.674;entryDx=0;entryDy=0;entryPerimeter=0;" edge="1" parent="1" target="w3CWmhNfxF5kTrnPfjpj-19">
          <mxGeometry width="50" height="50" relative="1" as="geometry">
            <mxPoint x="539" y="135" as="sourcePoint" />
            <mxPoint x="554" y="135" as="targetPoint" />
          </mxGeometry>
        </mxCell>
        <mxCell id="w3CWmhNfxF5kTrnPfjpj-23" value="" style="whiteSpace=wrap;html=1;aspect=fixed;" vertex="1" parent="1">
          <mxGeometry x="151" y="305" width="80" height="80" as="geometry" />
        </mxCell>
        <mxCell id="w3CWmhNfxF5kTrnPfjpj-145" style="edgeStyle=orthogonalEdgeStyle;rounded=0;orthogonalLoop=1;jettySize=auto;html=1;exitX=0.5;exitY=1;exitDx=0;exitDy=0;entryX=0.5;entryY=0;entryDx=0;entryDy=0;endArrow=none;endFill=0;" edge="1" parent="1" source="w3CWmhNfxF5kTrnPfjpj-24" target="w3CWmhNfxF5kTrnPfjpj-2">
          <mxGeometry relative="1" as="geometry" />
        </mxCell>
        <mxCell id="w3CWmhNfxF5kTrnPfjpj-24" value="" style="whiteSpace=wrap;html=1;aspect=fixed;" vertex="1" parent="1">
          <mxGeometry x="320" y="305" width="80" height="80" as="geometry" />
        </mxCell>
        <mxCell id="w3CWmhNfxF5kTrnPfjpj-25" value="" style="whiteSpace=wrap;html=1;aspect=fixed;" vertex="1" parent="1">
          <mxGeometry x="524" y="305" width="80" height="80" as="geometry" />
        </mxCell>
        <mxCell id="w3CWmhNfxF5kTrnPfjpj-26" value="" style="shape=trapezoid;perimeter=trapezoidPerimeter;whiteSpace=wrap;html=1;fixedSize=1;direction=west;" vertex="1" parent="1">
          <mxGeometry x="134" y="245" width="70" height="30" as="geometry" />
        </mxCell>
        <mxCell id="w3CWmhNfxF5kTrnPfjpj-27" value="" style="endArrow=none;html=1;rounded=0;entryX=0.908;entryY=0.674;entryDx=0;entryDy=0;entryPerimeter=0;" edge="1" parent="1" target="w3CWmhNfxF5kTrnPfjpj-26">
          <mxGeometry width="50" height="50" relative="1" as="geometry">
            <mxPoint x="124" y="255" as="sourcePoint" />
            <mxPoint x="139" y="255" as="targetPoint" />
          </mxGeometry>
        </mxCell>
        <mxCell id="w3CWmhNfxF5kTrnPfjpj-28" value="" style="shape=trapezoid;perimeter=trapezoidPerimeter;whiteSpace=wrap;html=1;fixedSize=1;direction=west;" vertex="1" parent="1">
          <mxGeometry x="349" y="245" width="70" height="30" as="geometry" />
        </mxCell>
        <mxCell id="w3CWmhNfxF5kTrnPfjpj-29" value="" style="endArrow=none;html=1;rounded=0;entryX=0.908;entryY=0.674;entryDx=0;entryDy=0;entryPerimeter=0;" edge="1" parent="1" target="w3CWmhNfxF5kTrnPfjpj-28">
          <mxGeometry width="50" height="50" relative="1" as="geometry">
            <mxPoint x="339" y="255" as="sourcePoint" />
            <mxPoint x="354" y="255" as="targetPoint" />
          </mxGeometry>
        </mxCell>
        <mxCell id="w3CWmhNfxF5kTrnPfjpj-30" value="" style="endArrow=none;html=1;rounded=0;exitX=0.75;exitY=1;exitDx=0;exitDy=0;" edge="1" parent="1" source="w3CWmhNfxF5kTrnPfjpj-26">
          <mxGeometry width="50" height="50" relative="1" as="geometry">
            <mxPoint x="84" y="185" as="sourcePoint" />
            <mxPoint x="134" y="155" as="targetPoint" />
            <Array as="points">
              <mxPoint x="152" y="175" />
              <mxPoint x="134" y="175" />
            </Array>
          </mxGeometry>
        </mxCell>
        <mxCell id="w3CWmhNfxF5kTrnPfjpj-31" value="" style="endArrow=none;html=1;rounded=0;entryX=0.553;entryY=0.004;entryDx=0;entryDy=0;entryPerimeter=0;" edge="1" parent="1" target="w3CWmhNfxF5kTrnPfjpj-109">
          <mxGeometry width="50" height="50" relative="1" as="geometry">
            <mxPoint x="584" y="175" as="sourcePoint" />
            <mxPoint x="399" y="245" as="targetPoint" />
            <Array as="points">
              <mxPoint x="370" y="175" />
            </Array>
          </mxGeometry>
        </mxCell>
        <mxCell id="w3CWmhNfxF5kTrnPfjpj-32" value="" style="ellipse;whiteSpace=wrap;html=1;aspect=fixed;rotation=15;" vertex="1" parent="1">
          <mxGeometry x="220.01" y="263.28" as="geometry" />
        </mxCell>
        <mxCell id="w3CWmhNfxF5kTrnPfjpj-33" value="" style="ellipse;whiteSpace=wrap;html=1;aspect=fixed;fillColor=#000000;" vertex="1" parent="1">
          <mxGeometry x="582" y="173" width="3" height="3" as="geometry" />
        </mxCell>
        <mxCell id="w3CWmhNfxF5kTrnPfjpj-34" value="" style="endArrow=none;html=1;rounded=0;exitX=0.25;exitY=1;exitDx=0;exitDy=0;entryX=0.5;entryY=0;entryDx=0;entryDy=0;" edge="1" parent="1" source="w3CWmhNfxF5kTrnPfjpj-26" target="w3CWmhNfxF5kTrnPfjpj-15">
          <mxGeometry width="50" height="50" relative="1" as="geometry">
            <mxPoint x="359" y="185" as="sourcePoint" />
            <mxPoint x="409" y="135" as="targetPoint" />
            <Array as="points">
              <mxPoint x="187" y="205" />
              <mxPoint x="404" y="205" />
            </Array>
          </mxGeometry>
        </mxCell>
        <mxCell id="w3CWmhNfxF5kTrnPfjpj-35" value="" style="endArrow=none;html=1;rounded=0;exitX=0.25;exitY=0;exitDx=0;exitDy=0;entryX=0.5;entryY=0;entryDx=0;entryDy=0;" edge="1" parent="1" source="w3CWmhNfxF5kTrnPfjpj-24" target="w3CWmhNfxF5kTrnPfjpj-13">
          <mxGeometry width="50" height="50" relative="1" as="geometry">
            <mxPoint x="264" y="185" as="sourcePoint" />
            <mxPoint x="314" y="135" as="targetPoint" />
            <Array as="points">
              <mxPoint x="344" y="280" />
              <mxPoint x="314" y="280" />
            </Array>
          </mxGeometry>
        </mxCell>
        <mxCell id="w3CWmhNfxF5kTrnPfjpj-36" value="" style="endArrow=none;html=1;rounded=0;entryX=0.5;entryY=0;entryDx=0;entryDy=0;" edge="1" parent="1" target="w3CWmhNfxF5kTrnPfjpj-11">
          <mxGeometry width="50" height="50" relative="1" as="geometry">
            <mxPoint x="214" y="305" as="sourcePoint" />
            <mxPoint x="224" y="135" as="targetPoint" />
            <Array as="points">
              <mxPoint x="214" y="280" />
              <mxPoint x="224" y="280" />
            </Array>
          </mxGeometry>
        </mxCell>
        <mxCell id="w3CWmhNfxF5kTrnPfjpj-37" value="ALU" style="text;html=1;align=center;verticalAlign=middle;whiteSpace=wrap;rounded=0;" vertex="1" parent="1">
          <mxGeometry x="534" y="330" width="60" height="30" as="geometry" />
        </mxCell>
        <mxCell id="w3CWmhNfxF5kTrnPfjpj-38" value="" style="endArrow=none;html=1;rounded=0;exitX=0.25;exitY=0;exitDx=0;exitDy=0;" edge="1" parent="1" source="w3CWmhNfxF5kTrnPfjpj-25">
          <mxGeometry width="50" height="50" relative="1" as="geometry">
            <mxPoint x="449" y="185" as="sourcePoint" />
            <mxPoint x="494" y="155" as="targetPoint" />
            <Array as="points">
              <mxPoint x="544" y="225" />
              <mxPoint x="494" y="225" />
            </Array>
          </mxGeometry>
        </mxCell>
        <mxCell id="w3CWmhNfxF5kTrnPfjpj-39" value="" style="endArrow=none;html=1;rounded=0;exitX=0.75;exitY=0;exitDx=0;exitDy=0;" edge="1" parent="1" source="w3CWmhNfxF5kTrnPfjpj-25">
          <mxGeometry width="50" height="50" relative="1" as="geometry">
            <mxPoint x="589" y="305" as="sourcePoint" />
            <mxPoint x="584" y="155" as="targetPoint" />
          </mxGeometry>
        </mxCell>
        <mxCell id="w3CWmhNfxF5kTrnPfjpj-41" value="" style="endArrow=none;html=1;rounded=0;" edge="1" parent="1">
          <mxGeometry width="50" height="50" relative="1" as="geometry">
            <mxPoint x="564" y="415" as="sourcePoint" />
            <mxPoint x="564" y="385" as="targetPoint" />
          </mxGeometry>
        </mxCell>
        <mxCell id="w3CWmhNfxF5kTrnPfjpj-43" value="" style="endArrow=none;html=1;rounded=0;entryX=0.5;entryY=1;entryDx=0;entryDy=0;" edge="1" parent="1" target="w3CWmhNfxF5kTrnPfjpj-23" source="w3CWmhNfxF5kTrnPfjpj-73">
          <mxGeometry width="50" height="50" relative="1" as="geometry">
            <mxPoint x="191" y="525" as="sourcePoint" />
            <mxPoint x="209" y="435" as="targetPoint" />
          </mxGeometry>
        </mxCell>
        <mxCell id="w3CWmhNfxF5kTrnPfjpj-44" value="" style="endArrow=none;html=1;rounded=0;exitX=0.5;exitY=0.167;exitDx=0;exitDy=0;exitPerimeter=0;" edge="1" parent="1" source="w3CWmhNfxF5kTrnPfjpj-67">
          <mxGeometry width="50" height="50" relative="1" as="geometry">
            <mxPoint x="564" y="505" as="sourcePoint" />
            <mxPoint x="564" y="385" as="targetPoint" />
          </mxGeometry>
        </mxCell>
        <mxCell id="w3CWmhNfxF5kTrnPfjpj-46" value="MUL1" style="text;html=1;align=center;verticalAlign=middle;whiteSpace=wrap;rounded=0;" vertex="1" parent="1">
          <mxGeometry x="161" y="330" width="60" height="30" as="geometry" />
        </mxCell>
        <mxCell id="w3CWmhNfxF5kTrnPfjpj-47" value="&lt;div&gt;MUL2&lt;/div&gt;" style="text;html=1;align=center;verticalAlign=middle;whiteSpace=wrap;rounded=0;" vertex="1" parent="1">
          <mxGeometry x="329" y="330" width="60" height="30" as="geometry" />
        </mxCell>
        <mxCell id="w3CWmhNfxF5kTrnPfjpj-48" value="" style="endArrow=none;html=1;rounded=0;exitX=0.615;exitY=0.004;exitDx=0;exitDy=0;exitPerimeter=0;entryX=0.5;entryY=1;entryDx=0;entryDy=0;" edge="1" parent="1" source="w3CWmhNfxF5kTrnPfjpj-117" target="w3CWmhNfxF5kTrnPfjpj-49">
          <mxGeometry width="50" height="50" relative="1" as="geometry">
            <mxPoint x="367" y="245" as="sourcePoint" />
            <mxPoint x="400" y="205" as="targetPoint" />
            <Array as="points" />
          </mxGeometry>
        </mxCell>
        <mxCell id="w3CWmhNfxF5kTrnPfjpj-49" value="" style="ellipse;whiteSpace=wrap;html=1;aspect=fixed;fillColor=#000000;" vertex="1" parent="1">
          <mxGeometry x="402" y="203" width="3" height="3" as="geometry" />
        </mxCell>
        <mxCell id="w3CWmhNfxF5kTrnPfjpj-50" value="" style="endArrow=none;html=1;rounded=0;exitX=0.574;exitY=-0.029;exitDx=0;exitDy=0;exitPerimeter=0;" edge="1" parent="1">
          <mxGeometry width="50" height="50" relative="1" as="geometry">
            <mxPoint x="309" y="525" as="sourcePoint" />
            <mxPoint x="309" y="440" as="targetPoint" />
          </mxGeometry>
        </mxCell>
        <mxCell id="w3CWmhNfxF5kTrnPfjpj-51" value="" style="endArrow=none;html=1;rounded=0;" edge="1" parent="1">
          <mxGeometry width="50" height="50" relative="1" as="geometry">
            <mxPoint x="569" y="125" as="sourcePoint" />
            <mxPoint x="569" y="105" as="targetPoint" />
          </mxGeometry>
        </mxCell>
        <mxCell id="w3CWmhNfxF5kTrnPfjpj-52" value="" style="endArrow=none;html=1;rounded=0;" edge="1" parent="1">
          <mxGeometry width="50" height="50" relative="1" as="geometry">
            <mxPoint x="479" y="125" as="sourcePoint" />
            <mxPoint x="479" y="105" as="targetPoint" />
          </mxGeometry>
        </mxCell>
        <mxCell id="w3CWmhNfxF5kTrnPfjpj-53" value="" style="endArrow=none;html=1;rounded=0;" edge="1" parent="1">
          <mxGeometry width="50" height="50" relative="1" as="geometry">
            <mxPoint x="388.81" y="125" as="sourcePoint" />
            <mxPoint x="388.81" y="105" as="targetPoint" />
          </mxGeometry>
        </mxCell>
        <mxCell id="w3CWmhNfxF5kTrnPfjpj-54" value="" style="endArrow=none;html=1;rounded=0;" edge="1" parent="1">
          <mxGeometry width="50" height="50" relative="1" as="geometry">
            <mxPoint x="298.81" y="125" as="sourcePoint" />
            <mxPoint x="298.81" y="105" as="targetPoint" />
          </mxGeometry>
        </mxCell>
        <mxCell id="w3CWmhNfxF5kTrnPfjpj-55" value="" style="endArrow=none;html=1;rounded=0;" edge="1" parent="1">
          <mxGeometry width="50" height="50" relative="1" as="geometry">
            <mxPoint x="149.4" y="125" as="sourcePoint" />
            <mxPoint x="149" y="55" as="targetPoint" />
          </mxGeometry>
        </mxCell>
        <mxCell id="w3CWmhNfxF5kTrnPfjpj-56" value="" style="endArrow=none;html=1;rounded=0;" edge="1" parent="1">
          <mxGeometry width="50" height="50" relative="1" as="geometry">
            <mxPoint x="118.81" y="125" as="sourcePoint" />
            <mxPoint x="118.81" y="105" as="targetPoint" />
          </mxGeometry>
        </mxCell>
        <mxCell id="w3CWmhNfxF5kTrnPfjpj-57" value="" style="endArrow=none;html=1;rounded=0;" edge="1" parent="1">
          <mxGeometry width="50" height="50" relative="1" as="geometry">
            <mxPoint x="384" y="305" as="sourcePoint" />
            <mxPoint x="384" y="275" as="targetPoint" />
          </mxGeometry>
        </mxCell>
        <mxCell id="w3CWmhNfxF5kTrnPfjpj-58" value="" style="endArrow=none;html=1;rounded=0;" edge="1" parent="1">
          <mxGeometry width="50" height="50" relative="1" as="geometry">
            <mxPoint x="169" y="305" as="sourcePoint" />
            <mxPoint x="168.76" y="275" as="targetPoint" />
          </mxGeometry>
        </mxCell>
        <mxCell id="w3CWmhNfxF5kTrnPfjpj-59" value="&lt;font style=&quot;font-size: 10px;&quot;&gt;A&lt;/font&gt;&lt;font style=&quot;font-size: 8px;&quot;&gt;i&lt;/font&gt;" style="text;html=1;align=center;verticalAlign=middle;whiteSpace=wrap;rounded=0;" vertex="1" parent="1">
          <mxGeometry x="94" y="95" width="35" height="20" as="geometry" />
        </mxCell>
        <mxCell id="w3CWmhNfxF5kTrnPfjpj-60" value="&lt;font style=&quot;font-size: 10px;&quot;&gt;B&lt;/font&gt;&lt;font style=&quot;font-size: 8px;&quot;&gt;i&lt;/font&gt;" style="text;html=1;align=center;verticalAlign=middle;whiteSpace=wrap;rounded=0;" vertex="1" parent="1">
          <mxGeometry x="184" y="95" width="35" height="20" as="geometry" />
        </mxCell>
        <mxCell id="w3CWmhNfxF5kTrnPfjpj-61" value="&lt;font style=&quot;font-size: 10px;&quot;&gt;C&lt;/font&gt;&lt;font style=&quot;font-size: 8px;&quot;&gt;i&lt;/font&gt;" style="text;html=1;align=center;verticalAlign=middle;whiteSpace=wrap;rounded=0;" vertex="1" parent="1">
          <mxGeometry x="274" y="95" width="35" height="20" as="geometry" />
        </mxCell>
        <mxCell id="w3CWmhNfxF5kTrnPfjpj-62" value="&lt;font style=&quot;font-size: 10px;&quot;&gt;D&lt;/font&gt;&lt;font style=&quot;font-size: 8px;&quot;&gt;i&lt;/font&gt;" style="text;html=1;align=center;verticalAlign=middle;whiteSpace=wrap;rounded=0;" vertex="1" parent="1">
          <mxGeometry x="364" y="95" width="35" height="20" as="geometry" />
        </mxCell>
        <mxCell id="w3CWmhNfxF5kTrnPfjpj-63" value="&lt;font style=&quot;font-size: 10px;&quot;&gt;E&lt;/font&gt;&lt;font style=&quot;font-size: 8px;&quot;&gt;i&lt;/font&gt;" style="text;html=1;align=center;verticalAlign=middle;whiteSpace=wrap;rounded=0;" vertex="1" parent="1">
          <mxGeometry x="454" y="95" width="35" height="20" as="geometry" />
        </mxCell>
        <mxCell id="w3CWmhNfxF5kTrnPfjpj-64" value="&lt;font style=&quot;font-size: 10px;&quot;&gt;F&lt;/font&gt;&lt;font style=&quot;font-size: 8px;&quot;&gt;i&lt;/font&gt;" style="text;html=1;align=center;verticalAlign=middle;whiteSpace=wrap;rounded=0;" vertex="1" parent="1">
          <mxGeometry x="544" y="95" width="35" height="20" as="geometry" />
        </mxCell>
        <mxCell id="w3CWmhNfxF5kTrnPfjpj-65" value="Reg3" style="text;html=1;align=center;verticalAlign=middle;whiteSpace=wrap;rounded=0;" vertex="1" parent="1">
          <mxGeometry x="399" y="520" width="60" height="30" as="geometry" />
        </mxCell>
        <mxCell id="w3CWmhNfxF5kTrnPfjpj-66" value="Reg1" style="text;html=1;align=center;verticalAlign=middle;whiteSpace=wrap;rounded=0;" vertex="1" parent="1">
          <mxGeometry x="162" y="520" width="59" height="30" as="geometry" />
        </mxCell>
        <mxCell id="w3CWmhNfxF5kTrnPfjpj-67" value="Reg4" style="text;html=1;align=center;verticalAlign=middle;whiteSpace=wrap;rounded=0;" vertex="1" parent="1">
          <mxGeometry x="534" y="520" width="60" height="30" as="geometry" />
        </mxCell>
        <mxCell id="w3CWmhNfxF5kTrnPfjpj-68" value="Reg2" style="text;html=1;align=center;verticalAlign=middle;whiteSpace=wrap;rounded=0;" vertex="1" parent="1">
          <mxGeometry x="279.5" y="520" width="60" height="30" as="geometry" />
        </mxCell>
        <mxCell id="w3CWmhNfxF5kTrnPfjpj-69" value="" style="endArrow=none;html=1;rounded=0;entryX=0;entryY=0;entryDx=0;entryDy=0;" edge="1" parent="1" target="w3CWmhNfxF5kTrnPfjpj-128">
          <mxGeometry width="50" height="50" relative="1" as="geometry">
            <mxPoint x="604" y="320" as="sourcePoint" />
            <mxPoint x="629" y="320" as="targetPoint" />
          </mxGeometry>
        </mxCell>
        <mxCell id="w3CWmhNfxF5kTrnPfjpj-70" value="&lt;font style=&quot;font-size: 8px;&quot;&gt;addSub&lt;/font&gt;" style="text;html=1;align=center;verticalAlign=middle;whiteSpace=wrap;rounded=0;fontSize=10;" vertex="1" parent="1">
          <mxGeometry x="619" y="310" width="30" height="15" as="geometry" />
        </mxCell>
        <mxCell id="w3CWmhNfxF5kTrnPfjpj-75" value="" style="endArrow=none;html=1;rounded=0;" edge="1" parent="1">
          <mxGeometry width="50" height="50" relative="1" as="geometry">
            <mxPoint x="192" y="585" as="sourcePoint" />
            <mxPoint x="192" y="545" as="targetPoint" />
          </mxGeometry>
        </mxCell>
        <mxCell id="w3CWmhNfxF5kTrnPfjpj-76" value="" style="endArrow=none;html=1;rounded=0;" edge="1" parent="1">
          <mxGeometry width="50" height="50" relative="1" as="geometry">
            <mxPoint x="309.29999999999995" y="585" as="sourcePoint" />
            <mxPoint x="309.29999999999995" y="545" as="targetPoint" />
          </mxGeometry>
        </mxCell>
        <mxCell id="w3CWmhNfxF5kTrnPfjpj-77" value="" style="endArrow=none;html=1;rounded=0;" edge="1" parent="1">
          <mxGeometry width="50" height="50" relative="1" as="geometry">
            <mxPoint x="431.00000000000006" y="585" as="sourcePoint" />
            <mxPoint x="431.00000000000006" y="545" as="targetPoint" />
          </mxGeometry>
        </mxCell>
        <mxCell id="w3CWmhNfxF5kTrnPfjpj-78" value="" style="endArrow=none;html=1;rounded=0;" edge="1" parent="1">
          <mxGeometry width="50" height="50" relative="1" as="geometry">
            <mxPoint x="563.71" y="585" as="sourcePoint" />
            <mxPoint x="563.71" y="545" as="targetPoint" />
          </mxGeometry>
        </mxCell>
        <mxCell id="w3CWmhNfxF5kTrnPfjpj-79" value="" style="endArrow=none;html=1;rounded=0;strokeWidth=3;" edge="1" parent="1">
          <mxGeometry width="50" height="50" relative="1" as="geometry">
            <mxPoint x="192" y="585" as="sourcePoint" />
            <mxPoint x="149" y="55" as="targetPoint" />
            <Array as="points">
              <mxPoint x="659" y="585" />
              <mxPoint x="659" y="55" />
            </Array>
          </mxGeometry>
        </mxCell>
        <mxCell id="w3CWmhNfxF5kTrnPfjpj-80" value="" style="endArrow=none;html=1;rounded=0;" edge="1" parent="1">
          <mxGeometry width="50" height="50" relative="1" as="geometry">
            <mxPoint x="239.39999999999998" y="125" as="sourcePoint" />
            <mxPoint x="239" y="55" as="targetPoint" />
          </mxGeometry>
        </mxCell>
        <mxCell id="w3CWmhNfxF5kTrnPfjpj-81" value="" style="endArrow=none;html=1;rounded=0;entryX=0.715;entryY=1.023;entryDx=0;entryDy=0;exitX=0.714;exitY=0.5;exitDx=0;exitDy=0;exitPerimeter=0;entryPerimeter=0;" edge="1" parent="1" source="w3CWmhNfxF5kTrnPfjpj-60" target="w3CWmhNfxF5kTrnPfjpj-11">
          <mxGeometry width="50" height="50" relative="1" as="geometry">
            <mxPoint x="128.81" y="135" as="sourcePoint" />
            <mxPoint x="128.81" y="115" as="targetPoint" />
          </mxGeometry>
        </mxCell>
        <mxCell id="w3CWmhNfxF5kTrnPfjpj-82" value="" style="endArrow=none;html=1;rounded=0;" edge="1" parent="1">
          <mxGeometry width="50" height="50" relative="1" as="geometry">
            <mxPoint x="329" y="125" as="sourcePoint" />
            <mxPoint x="329" y="55" as="targetPoint" />
          </mxGeometry>
        </mxCell>
        <mxCell id="w3CWmhNfxF5kTrnPfjpj-83" value="" style="endArrow=none;html=1;rounded=0;" edge="1" parent="1">
          <mxGeometry width="50" height="50" relative="1" as="geometry">
            <mxPoint x="509.4" y="125" as="sourcePoint" />
            <mxPoint x="509" y="55" as="targetPoint" />
          </mxGeometry>
        </mxCell>
        <mxCell id="w3CWmhNfxF5kTrnPfjpj-84" value="" style="endArrow=none;html=1;rounded=0;" edge="1" parent="1">
          <mxGeometry width="50" height="50" relative="1" as="geometry">
            <mxPoint x="599" y="125" as="sourcePoint" />
            <mxPoint x="599" y="55" as="targetPoint" />
          </mxGeometry>
        </mxCell>
        <mxCell id="w3CWmhNfxF5kTrnPfjpj-85" value="" style="endArrow=none;html=1;rounded=0;" edge="1" parent="1">
          <mxGeometry width="50" height="50" relative="1" as="geometry">
            <mxPoint x="419.4" y="125" as="sourcePoint" />
            <mxPoint x="419" y="55" as="targetPoint" />
          </mxGeometry>
        </mxCell>
        <mxCell id="w3CWmhNfxF5kTrnPfjpj-86" value="" style="endArrow=none;html=1;rounded=0;" edge="1" parent="1">
          <mxGeometry width="50" height="50" relative="1" as="geometry">
            <mxPoint x="649" y="345" as="sourcePoint" />
            <mxPoint x="669" y="325" as="targetPoint" />
          </mxGeometry>
        </mxCell>
        <mxCell id="w3CWmhNfxF5kTrnPfjpj-87" value="4" style="text;html=1;align=center;verticalAlign=middle;whiteSpace=wrap;rounded=0;" vertex="1" parent="1">
          <mxGeometry x="639" y="325" width="60" height="30" as="geometry" />
        </mxCell>
        <mxCell id="w3CWmhNfxF5kTrnPfjpj-88" value="&lt;span style=&quot;font-size: 10px;&quot;&gt;Reg3&lt;/span&gt;" style="text;html=1;align=center;verticalAlign=middle;whiteSpace=wrap;rounded=0;" vertex="1" parent="1">
          <mxGeometry x="148.5" y="65" width="35" height="20" as="geometry" />
        </mxCell>
        <mxCell id="w3CWmhNfxF5kTrnPfjpj-89" value="&lt;span style=&quot;font-size: 10px;&quot;&gt;Reg1&lt;/span&gt;" style="text;html=1;align=center;verticalAlign=middle;whiteSpace=wrap;rounded=0;" vertex="1" parent="1">
          <mxGeometry x="239" y="65" width="35" height="20" as="geometry" />
        </mxCell>
        <mxCell id="w3CWmhNfxF5kTrnPfjpj-90" value="&lt;span style=&quot;font-size: 10px;&quot;&gt;Reg4&lt;/span&gt;" style="text;html=1;align=center;verticalAlign=middle;whiteSpace=wrap;rounded=0;" vertex="1" parent="1">
          <mxGeometry x="329" y="65" width="35" height="20" as="geometry" />
        </mxCell>
        <mxCell id="w3CWmhNfxF5kTrnPfjpj-91" value="&lt;span style=&quot;font-size: 10px;&quot;&gt;Reg2&lt;/span&gt;" style="text;html=1;align=center;verticalAlign=middle;whiteSpace=wrap;rounded=0;" vertex="1" parent="1">
          <mxGeometry x="419" y="65" width="35" height="20" as="geometry" />
        </mxCell>
        <mxCell id="w3CWmhNfxF5kTrnPfjpj-92" value="&lt;span style=&quot;font-size: 10px;&quot;&gt;Reg1&lt;/span&gt;" style="text;html=1;align=center;verticalAlign=middle;whiteSpace=wrap;rounded=0;" vertex="1" parent="1">
          <mxGeometry x="509" y="65" width="35" height="20" as="geometry" />
        </mxCell>
        <mxCell id="w3CWmhNfxF5kTrnPfjpj-93" value="&lt;span style=&quot;font-size: 10px;&quot;&gt;Reg3&lt;/span&gt;" style="text;html=1;align=center;verticalAlign=middle;whiteSpace=wrap;rounded=0;" vertex="1" parent="1">
          <mxGeometry x="599" y="65" width="35" height="20" as="geometry" />
        </mxCell>
        <mxCell id="w3CWmhNfxF5kTrnPfjpj-95" value="selIn1" style="text;html=1;align=center;verticalAlign=middle;whiteSpace=wrap;rounded=0;fontSize=8;" vertex="1" parent="1">
          <mxGeometry x="70" y="135" width="40" height="10" as="geometry" />
        </mxCell>
        <mxCell id="w3CWmhNfxF5kTrnPfjpj-96" value="selIn1" style="text;html=1;align=center;verticalAlign=middle;whiteSpace=wrap;rounded=0;fontSize=8;" vertex="1" parent="1">
          <mxGeometry x="161" y="135" width="40" height="10" as="geometry" />
        </mxCell>
        <mxCell id="w3CWmhNfxF5kTrnPfjpj-97" value="selIn2" style="text;html=1;align=center;verticalAlign=middle;whiteSpace=wrap;rounded=0;fontSize=8;" vertex="1" parent="1">
          <mxGeometry x="254" y="135" width="40" height="10" as="geometry" />
        </mxCell>
        <mxCell id="w3CWmhNfxF5kTrnPfjpj-98" value="selIn2" style="text;html=1;align=center;verticalAlign=middle;whiteSpace=wrap;rounded=0;fontSize=8;" vertex="1" parent="1">
          <mxGeometry x="344" y="135" width="40" height="10" as="geometry" />
        </mxCell>
        <mxCell id="w3CWmhNfxF5kTrnPfjpj-99" value="selIn2" style="text;html=1;align=center;verticalAlign=middle;whiteSpace=wrap;rounded=0;fontSize=8;" vertex="1" parent="1">
          <mxGeometry x="431" y="135" width="40" height="10" as="geometry" />
        </mxCell>
        <mxCell id="w3CWmhNfxF5kTrnPfjpj-100" value="selIn2" style="text;html=1;align=center;verticalAlign=middle;whiteSpace=wrap;rounded=0;fontSize=8;" vertex="1" parent="1">
          <mxGeometry x="524" y="135" width="40" height="10" as="geometry" />
        </mxCell>
        <mxCell id="w3CWmhNfxF5kTrnPfjpj-101" value="&lt;font style=&quot;font-size: 8px;&quot;&gt;0&lt;/font&gt;" style="text;html=1;align=center;verticalAlign=middle;whiteSpace=wrap;rounded=0;" vertex="1" parent="1">
          <mxGeometry x="110" y="125" width="20" height="10" as="geometry" />
        </mxCell>
        <mxCell id="w3CWmhNfxF5kTrnPfjpj-102" value="&lt;font style=&quot;font-size: 8px;&quot;&gt;0&lt;/font&gt;" style="text;html=1;align=center;verticalAlign=middle;whiteSpace=wrap;rounded=0;" vertex="1" parent="1">
          <mxGeometry x="199" y="125" width="20" height="10" as="geometry" />
        </mxCell>
        <mxCell id="w3CWmhNfxF5kTrnPfjpj-103" value="&lt;font style=&quot;font-size: 8px;&quot;&gt;0&lt;/font&gt;" style="text;html=1;align=center;verticalAlign=middle;whiteSpace=wrap;rounded=0;" vertex="1" parent="1">
          <mxGeometry x="289" y="125" width="20" height="10" as="geometry" />
        </mxCell>
        <mxCell id="w3CWmhNfxF5kTrnPfjpj-104" value="&lt;font style=&quot;font-size: 8px;&quot;&gt;0&lt;/font&gt;" style="text;html=1;align=center;verticalAlign=middle;whiteSpace=wrap;rounded=0;" vertex="1" parent="1">
          <mxGeometry x="379" y="125" width="20" height="10" as="geometry" />
        </mxCell>
        <mxCell id="w3CWmhNfxF5kTrnPfjpj-105" value="&lt;font style=&quot;font-size: 8px;&quot;&gt;0&lt;/font&gt;" style="text;html=1;align=center;verticalAlign=middle;whiteSpace=wrap;rounded=0;" vertex="1" parent="1">
          <mxGeometry x="469" y="125" width="20" height="10" as="geometry" />
        </mxCell>
        <mxCell id="w3CWmhNfxF5kTrnPfjpj-106" value="&lt;font style=&quot;font-size: 8px;&quot;&gt;0&lt;/font&gt;" style="text;html=1;align=center;verticalAlign=middle;whiteSpace=wrap;rounded=0;" vertex="1" parent="1">
          <mxGeometry x="559" y="125" width="20" height="10" as="geometry" />
        </mxCell>
        <mxCell id="w3CWmhNfxF5kTrnPfjpj-108" value="&lt;font style=&quot;font-size: 8px;&quot;&gt;0&lt;/font&gt;" style="text;html=1;align=center;verticalAlign=middle;whiteSpace=wrap;rounded=0;" vertex="1" parent="1">
          <mxGeometry x="141" y="245" width="20" height="10" as="geometry" />
        </mxCell>
        <mxCell id="w3CWmhNfxF5kTrnPfjpj-109" value="&lt;font style=&quot;font-size: 8px;&quot;&gt;0&lt;/font&gt;" style="text;html=1;align=center;verticalAlign=middle;whiteSpace=wrap;rounded=0;" vertex="1" parent="1">
          <mxGeometry x="358.5" y="245" width="20" height="10" as="geometry" />
        </mxCell>
        <mxCell id="w3CWmhNfxF5kTrnPfjpj-110" value="&lt;font style=&quot;font-size: 8px;&quot;&gt;1&lt;/font&gt;" style="text;html=1;align=center;verticalAlign=middle;whiteSpace=wrap;rounded=0;" vertex="1" parent="1">
          <mxGeometry x="141" y="125" width="20" height="10" as="geometry" />
        </mxCell>
        <mxCell id="w3CWmhNfxF5kTrnPfjpj-111" value="&lt;font style=&quot;font-size: 8px;&quot;&gt;1&lt;/font&gt;" style="text;html=1;align=center;verticalAlign=middle;whiteSpace=wrap;rounded=0;" vertex="1" parent="1">
          <mxGeometry x="228" y="125" width="20" height="10" as="geometry" />
        </mxCell>
        <mxCell id="w3CWmhNfxF5kTrnPfjpj-112" value="&lt;font style=&quot;font-size: 8px;&quot;&gt;1&lt;/font&gt;" style="text;html=1;align=center;verticalAlign=middle;whiteSpace=wrap;rounded=0;" vertex="1" parent="1">
          <mxGeometry x="321" y="125" width="20" height="10" as="geometry" />
        </mxCell>
        <mxCell id="w3CWmhNfxF5kTrnPfjpj-113" value="&lt;font style=&quot;font-size: 8px;&quot;&gt;1&lt;/font&gt;" style="text;html=1;align=center;verticalAlign=middle;whiteSpace=wrap;rounded=0;" vertex="1" parent="1">
          <mxGeometry x="407" y="125" width="20" height="10" as="geometry" />
        </mxCell>
        <mxCell id="w3CWmhNfxF5kTrnPfjpj-114" value="&lt;font style=&quot;font-size: 8px;&quot;&gt;1&lt;/font&gt;" style="text;html=1;align=center;verticalAlign=middle;whiteSpace=wrap;rounded=0;" vertex="1" parent="1">
          <mxGeometry x="496" y="125" width="20" height="10" as="geometry" />
        </mxCell>
        <mxCell id="w3CWmhNfxF5kTrnPfjpj-115" value="&lt;font style=&quot;font-size: 8px;&quot;&gt;1&lt;/font&gt;" style="text;html=1;align=center;verticalAlign=middle;whiteSpace=wrap;rounded=0;" vertex="1" parent="1">
          <mxGeometry x="588" y="125" width="20" height="10" as="geometry" />
        </mxCell>
        <mxCell id="w3CWmhNfxF5kTrnPfjpj-116" value="&lt;font style=&quot;font-size: 8px;&quot;&gt;1&lt;/font&gt;" style="text;html=1;align=center;verticalAlign=middle;whiteSpace=wrap;rounded=0;" vertex="1" parent="1">
          <mxGeometry x="175" y="245" width="20" height="10" as="geometry" />
        </mxCell>
        <mxCell id="w3CWmhNfxF5kTrnPfjpj-117" value="&lt;font style=&quot;font-size: 8px;&quot;&gt;1&lt;/font&gt;" style="text;html=1;align=center;verticalAlign=middle;whiteSpace=wrap;rounded=0;" vertex="1" parent="1">
          <mxGeometry x="391" y="245" width="20" height="10" as="geometry" />
        </mxCell>
        <mxCell id="w3CWmhNfxF5kTrnPfjpj-119" value="" style="endArrow=none;html=1;rounded=0;entryX=-0.023;entryY=0.511;entryDx=0;entryDy=0;entryPerimeter=0;" edge="1" parent="1">
          <mxGeometry width="50" height="50" relative="1" as="geometry">
            <mxPoint x="141" y="535" as="sourcePoint" />
            <mxPoint x="159.63" y="535.2199999999999" as="targetPoint" />
            <Array as="points">
              <mxPoint x="151" y="535" />
              <mxPoint x="160" y="535" />
            </Array>
          </mxGeometry>
        </mxCell>
        <mxCell id="w3CWmhNfxF5kTrnPfjpj-120" value="EN1" style="text;html=1;align=center;verticalAlign=middle;whiteSpace=wrap;rounded=0;fontSize=8;" vertex="1" parent="1">
          <mxGeometry x="121" y="530" width="20" height="10" as="geometry" />
        </mxCell>
        <mxCell id="w3CWmhNfxF5kTrnPfjpj-121" value="" style="endArrow=none;html=1;rounded=0;entryX=0;entryY=0.5;entryDx=0;entryDy=0;" edge="1" parent="1" target="w3CWmhNfxF5kTrnPfjpj-9">
          <mxGeometry width="50" height="50" relative="1" as="geometry">
            <mxPoint x="263" y="535" as="sourcePoint" />
            <mxPoint x="284" y="534.92" as="targetPoint" />
          </mxGeometry>
        </mxCell>
        <mxCell id="w3CWmhNfxF5kTrnPfjpj-122" value="EN2" style="text;html=1;align=center;verticalAlign=middle;whiteSpace=wrap;rounded=0;fontSize=8;" vertex="1" parent="1">
          <mxGeometry x="244" y="530" width="20" height="10" as="geometry" />
        </mxCell>
        <mxCell id="w3CWmhNfxF5kTrnPfjpj-123" value="" style="endArrow=none;html=1;rounded=0;" edge="1" parent="1">
          <mxGeometry width="50" height="50" relative="1" as="geometry">
            <mxPoint x="378.5" y="534.88" as="sourcePoint" />
            <mxPoint x="399.5" y="534.8" as="targetPoint" />
          </mxGeometry>
        </mxCell>
        <mxCell id="w3CWmhNfxF5kTrnPfjpj-124" value="EN3" style="text;html=1;align=center;verticalAlign=middle;whiteSpace=wrap;rounded=0;fontSize=8;" vertex="1" parent="1">
          <mxGeometry x="359" y="530" width="20" height="10" as="geometry" />
        </mxCell>
        <mxCell id="w3CWmhNfxF5kTrnPfjpj-125" value="" style="endArrow=none;html=1;rounded=0;" edge="1" parent="1">
          <mxGeometry width="50" height="50" relative="1" as="geometry">
            <mxPoint x="513" y="535" as="sourcePoint" />
            <mxPoint x="534" y="534.92" as="targetPoint" />
          </mxGeometry>
        </mxCell>
        <mxCell id="w3CWmhNfxF5kTrnPfjpj-126" value="EN4" style="text;html=1;align=center;verticalAlign=middle;whiteSpace=wrap;rounded=0;fontSize=8;" vertex="1" parent="1">
          <mxGeometry x="494" y="530" width="20" height="10" as="geometry" />
        </mxCell>
        <mxCell id="w3CWmhNfxF5kTrnPfjpj-128" value="&lt;span style=&quot;font-size: 8px;&quot;&gt;logic&lt;/span&gt;" style="text;html=1;align=center;verticalAlign=middle;whiteSpace=wrap;rounded=0;fontSize=10;" vertex="1" parent="1">
          <mxGeometry x="618" y="320" width="30" height="15" as="geometry" />
        </mxCell>
        <mxCell id="w3CWmhNfxF5kTrnPfjpj-129" value="selVal" style="text;html=1;align=center;verticalAlign=middle;whiteSpace=wrap;rounded=0;fontSize=8;" vertex="1" parent="1">
          <mxGeometry x="101" y="255" width="40" height="10" as="geometry" />
        </mxCell>
        <mxCell id="w3CWmhNfxF5kTrnPfjpj-130" value="selVal" style="text;html=1;align=center;verticalAlign=middle;whiteSpace=wrap;rounded=0;fontSize=8;" vertex="1" parent="1">
          <mxGeometry x="318.5" y="255" width="40" height="10" as="geometry" />
        </mxCell>
        <mxCell id="w3CWmhNfxF5kTrnPfjpj-135" value="" style="endArrow=none;html=1;rounded=0;entryX=0.084;entryY=0.659;entryDx=0;entryDy=0;entryPerimeter=0;" edge="1" parent="1" target="w3CWmhNfxF5kTrnPfjpj-128">
          <mxGeometry width="50" height="50" relative="1" as="geometry">
            <mxPoint x="604" y="330" as="sourcePoint" />
            <mxPoint x="619" y="330" as="targetPoint" />
          </mxGeometry>
        </mxCell>
        <mxCell id="w3CWmhNfxF5kTrnPfjpj-140" value="" style="endArrow=none;html=1;rounded=0;entryX=0.5;entryY=1;entryDx=0;entryDy=0;" edge="1" parent="1" target="w3CWmhNfxF5kTrnPfjpj-73">
          <mxGeometry width="50" height="50" relative="1" as="geometry">
            <mxPoint x="191" y="525" as="sourcePoint" />
            <mxPoint x="191" y="385" as="targetPoint" />
          </mxGeometry>
        </mxCell>
        <mxCell id="w3CWmhNfxF5kTrnPfjpj-73" value="" style="ellipse;whiteSpace=wrap;html=1;aspect=fixed;fillColor=#000000;" vertex="1" parent="1">
          <mxGeometry x="189.5" y="438" width="3" height="3" as="geometry" />
        </mxCell>
        <mxCell id="w3CWmhNfxF5kTrnPfjpj-141" value="" style="endArrow=none;html=1;rounded=0;entryX=1;entryY=0.5;entryDx=0;entryDy=0;" edge="1" parent="1" target="w3CWmhNfxF5kTrnPfjpj-73">
          <mxGeometry width="50" height="50" relative="1" as="geometry">
            <mxPoint x="310" y="440" as="sourcePoint" />
            <mxPoint x="208.82999999999998" y="430" as="targetPoint" />
          </mxGeometry>
        </mxCell>
      </root>
    </mxGraphModel>
  </diagram>
</mxfile>
